<?xml version="1.0" encoding="UTF-8" standalone="no"?>
<!-- Created with Inkscape (http://www.inkscape.org/) -->

<svg
   version="1.1"
   id="svg2"
   width="2654.5601"
   height="955.01331"
   viewBox="0 0 2654.5601 955.01331"
   sodipodi:docname="tealive-seeklogo.ai"
   xmlns:inkscape="http://www.inkscape.org/namespaces/inkscape"
   xmlns:sodipodi="http://sodipodi.sourceforge.net/DTD/sodipodi-0.dtd"
   xmlns="http://www.w3.org/2000/svg"
   xmlns:svg="http://www.w3.org/2000/svg">
  <defs
     id="defs6">
    <clipPath
       clipPathUnits="userSpaceOnUse"
       id="clipPath16">
      <path
         d="M 0,716.26 H 1990.924 V 0 H 0 Z"
         id="path14" />
    </clipPath>
  </defs>
  <sodipodi:namedview
     id="namedview4"
     pagecolor="#ffffff"
     bordercolor="#000000"
     borderopacity="0.25"
     inkscape:showpageshadow="2"
     inkscape:pageopacity="0.0"
     inkscape:pagecheckerboard="0"
     inkscape:deskcolor="#d1d1d1" />
  <g
     id="g8"
     inkscape:groupmode="layer"
     inkscape:label="tealive-seeklogo"
     transform="matrix(1.3333333,0,0,-1.3333333,0,955.01333)">
    <g
       id="g10">
      <g
         id="g12"
         clip-path="url(#clipPath16)">
        <g
           id="g18"
           transform="translate(393.7466,220.2944)">
          <path
             d="m 0,0 c -11.871,-4.07 -39.117,-10.317 -55.509,-10.317 -10.741,0 -24.984,1.527 -34.931,15.431 -10.067,14.073 -11.307,22.842 -11.307,66.024 v 273.824 c 0,4.198 8.437,10.26 13.227,11.065 h -13.227 -4.748 -63.083 v -104.46 h -54.943 v -54.942 h 54.943 V 65.032 h 0.075 c 1.012,-58.255 13.622,-80.472 29.771,-98.581 24.004,-26.919 57.049,-32.898 81.963,-32.898 35.045,0 64.553,10.854 69.978,13.341 z"
             style="fill:#6f5da8;fill-opacity:1;fill-rule:nonzero;stroke:none"
             id="path20" />
        </g>
        <g
           id="g22"
           transform="translate(1101.9023,153.7905)">
          <path
             d="m 0,0 v 411.466 c 0,4.198 8.437,10.26 13.227,11.065 H 0 -4.748 -67.831 V 0 Z"
             style="fill:#6f5da8;fill-opacity:1;fill-rule:nonzero;stroke:none"
             id="path24" />
        </g>
        <g
           id="g26"
           transform="translate(1234.0879,153.7905)">
          <path
             d="m 0,0 v 306.384 c 0,4.197 8.437,10.259 13.227,11.065 H 0 -4.748 -67.831 V 0 Z"
             style="fill:#6f5da8;fill-opacity:1;fill-rule:nonzero;stroke:none"
             id="path28" />
        </g>
        <g
           id="g30"
           transform="translate(297.2778,423.0659)">
          <path
             d="m 0,0 h 51.361 c 36.629,0 51.128,34.636 54.646,48.754 h -51 C 25.586,48.754 8.5,25.903 0,0"
             style="fill:#2695a3;fill-opacity:1;fill-rule:nonzero;stroke:none"
             id="path32" />
        </g>
        <g
           id="g34"
           transform="translate(523.6069,294.0317)">
          <path
             d="m 0,0 h 51.361 c 36.629,0 51.128,34.637 54.646,48.754 h -51 C 25.586,48.754 8.5,25.903 0,0"
             style="fill:#bb6d7c;fill-opacity:1;fill-rule:nonzero;stroke:none"
             id="path36" />
        </g>
        <g
           id="g38"
           transform="translate(727.54,294.0317)">
          <path
             d="m 0,0 h 51.36 c 36.629,0 51.128,34.637 54.647,48.754 h -51 C 25.586,48.754 8.5,25.903 0,0"
             style="fill:#e69d23;fill-opacity:1;fill-rule:nonzero;stroke:none"
             id="path40" />
        </g>
        <g
           id="g42"
           transform="translate(689.6592,181.0356)">
          <path
             d="m 0,0 c -15.27,-11.031 -62.9,-27.188 -113.447,-27.188 -113.881,0 -158.725,84.566 -158.725,158.696 0,50.631 23.594,158.696 158.725,158.696 75.321,0 118.789,-59.584 118.789,-118.421 0,-25.436 -9.13,-50.648 -15.574,-58.561 l -104.459,-0.226 c 36.628,0.185 51.213,34.594 54.646,48.754 3.209,13.235 -5.073,74.812 -60.524,74.812 -58.076,0 -87.389,-55.754 -87.389,-104.46 0,-64.366 38.716,-107.172 98.354,-107.172 C -56.922,24.93 -25.267,51.27 0,0"
             style="fill:#6f5da8;fill-opacity:1;fill-rule:nonzero;stroke:none"
             id="path44" />
        </g>
        <g
           id="g46"
           transform="translate(1737.8438,205.9653)">
          <path
             d="m 0,0 c -59.637,0 -98.354,42.807 -98.354,107.172 0,48.706 29.315,104.46 87.39,104.46 55.452,0 63.735,-61.576 60.524,-74.812 H -2.456 c -28.403,0 -45.49,-22.85 -53.99,-48.754 h 51.359 l 104.46,0.226 c 6.444,7.913 15.574,33.125 15.574,58.562 0,58.836 -43.467,118.42 -118.789,118.42 -135.131,0 -158.724,-108.065 -158.724,-158.696 0,-74.13 44.843,-158.696 158.724,-158.696 50.548,0 98.178,16.157 113.447,27.188 C 84.338,26.34 52.684,0 0,0"
             style="fill:#6f5da8;fill-opacity:1;fill-rule:nonzero;stroke:none"
             id="path48" />
        </g>
        <g
           id="g50"
           transform="translate(1498.0898,472.2007)">
          <path
             d="M 0,0 -72.964,-216.643 -151.771,0 h -64.665 l 111.679,-307.011 c -2.886,-6.047 -5.47,-10.939 -5.47,-10.939 h 40.876 c 17.432,0 22.195,11.002 27.73,25.599 0.485,1.301 0.99,2.645 1.504,4.002 L 62.608,-11.07 C 64.954,-6.864 73.393,-0.799 78.181,0 Z"
             style="fill:#6f5da8;fill-opacity:1;fill-rule:nonzero;stroke:none"
             id="path52" />
        </g>
        <g
           id="g54"
           transform="translate(1234.3984,541.8423)">
          <path
             d="m 0,0 c 0,-19.045 -15.438,-34.481 -34.48,-34.481 -19.043,0 -34.482,15.436 -34.482,34.481 0,19.042 15.439,34.479 34.482,34.479 C -15.438,34.479 0,19.042 0,0"
             style="fill:#2695a3;fill-opacity:1;fill-rule:nonzero;stroke:none"
             id="path56" />
        </g>
        <g
           id="g58"
           transform="translate(805.9414,301.7544)">
          <path
             d="m 0,0 c -15.383,-12.357 -27.254,-22.306 -27.254,-45.482 0,-23.176 16.396,-48.725 49.18,-48.725 32.784,0 76.649,27.359 76.649,59.24 V 46.43 c 0,21.028 -10.174,48.385 -25.775,57.882 -15.602,9.496 -29.621,11.304 -48.16,11.304 -18.543,0 -34.483,-4.182 -49.632,-4.182 -15.15,0 -34.199,7.065 -45.504,32.05 10.937,8.479 58.419,26.001 104.968,26.001 78.345,0 133.318,-48.385 133.318,-126.899 V -58.991 c 0,-27.302 5.397,-69.866 10.654,-85.638 -33.569,-1.804 -62.236,-9.044 -74.827,32.983 -4.578,-6.571 -38.056,-36.458 -93.776,-36.458 -68.467,0 -95.769,45.701 -95.769,92.108 0,25.324 5.281,42.031 7.527,48.273 h 51.36 C -15.129,-7.723 -6.587,-4.133 0,0"
             style="fill:#6f5da8;fill-opacity:1;fill-rule:nonzero;stroke:none"
             id="path60" />
        </g>
      </g>
    </g>
  </g>
</svg>
